  <svg width="57" height="57" viewBox="0 0 57 57" fill="none" xmlns="http://www.w3.org/2000/svg">
                        <g clip-path="url(#clip0_56_5664)">
                            <path
                            d="M15.2482 35.8741C15.7805 35.5671 15.9627 34.8857 15.6557 34.3534C15.3482 33.8215 14.6672 33.6389 14.1349 33.9459C13.6026 34.2534 13.42 34.9348 13.7274 35.4667C14.0345 35.9989 14.7159 36.1816 15.2482 35.8741Z"
                            fill="#1A4137" />
                            <path
                            d="M10.6857 43.557L16.2922 53.2682C17.502 55.3661 20.2234 56.1427 22.3756 54.8986C24.5052 53.6679 25.2371 50.9469 24.0051 48.8155L20.6653 43.03L23.5576 41.36C24.0899 41.0521 24.2726 40.3716 23.9651 39.8393L22.5174 37.3318C22.6901 37.2983 23.8251 37.0756 43.8411 33.1492C46.3155 33.0148 47.798 30.3086 46.5482 28.1451L42.8483 21.7367L45.2127 18.1555C45.4449 17.8033 45.4588 17.3506 45.2479 16.9853L43.0214 13.1288C42.8104 12.7635 42.4099 12.5496 41.9903 12.5743L37.7072 12.8314L33.5998 5.7168C33.0049 4.68614 31.939 4.0621 30.7492 4.04731C30.7348 4.04688 30.7209 4.04688 30.7065 4.04688C29.5567 4.04688 28.513 4.61917 27.8946 5.58677L13.3515 24.1133L3.8969 29.5719C0.178281 31.718 -1.10982 36.4886 1.04455 40.2172C3.0128 43.6266 7.16238 44.9678 10.6857 43.557ZM22.0773 49.9293C22.6922 50.993 22.3282 52.3541 21.2615 52.9703C20.1913 53.5892 18.8284 53.2091 18.2204 52.1554L12.654 42.5129L16.5105 40.2863C22.9527 51.4461 21.9738 49.7505 22.0773 49.9293ZM19.552 41.1013L18.4387 39.173L20.3669 38.0598L21.4802 39.988L19.552 41.1013ZM41.4371 14.8379L42.9757 17.5028L41.6037 19.5806L38.9518 14.987L41.4371 14.8379ZM29.7568 6.80746C30.0555 6.31866 30.5296 6.26822 30.7218 6.27344C30.9118 6.27561 31.3854 6.33475 31.6711 6.82964L44.62 29.2583C45.0418 29.9885 44.5291 30.9065 43.6832 30.9274C43.5315 30.9309 43.4614 30.9583 43.0727 31.0309L29.3754 7.30626C29.6628 6.93662 29.6998 6.90096 29.7568 6.80746ZM27.8938 9.19362L40.763 31.484L21.3406 35.2935L15.435 25.0648L27.8938 9.19362ZM2.97279 39.1039C2.48399 38.2581 2.22568 37.2979 2.22568 36.3264C2.22568 34.3407 3.29286 32.4916 5.01018 31.5001L13.6873 26.4903L19.2537 36.1315L10.5766 41.1417C7.9182 42.676 4.50747 41.7619 2.97279 39.1039Z"
                            fill="#1A4137" />
                            <path
                            d="M11.7973 36.5802C11.4899 36.0479 10.8088 35.8653 10.2765 36.1728L8.34831 37.286C7.81689 37.5931 7.13457 37.41 6.82755 36.8786C6.52009 36.3463 5.83908 36.1636 5.30679 36.4711C4.7745 36.7785 4.59186 37.4595 4.89931 37.9918C5.8156 39.5791 7.85951 40.1388 9.46159 39.2143L11.3898 38.101C11.9221 37.7935 12.1048 37.113 11.7973 36.5802Z"
                            fill="#1A4137" />
                            <path
                            d="M55.346 6.42795L49.1425 9.87999C48.6054 10.1792 48.4119 10.8572 48.7111 11.3942C49.0094 11.9309 49.6869 12.1253 50.2253 11.8256L56.4284 8.37359C56.9659 8.07439 57.159 7.39642 56.8598 6.85935C56.561 6.32184 55.883 6.12876 55.346 6.42795Z"
                            fill="#1A4137" />
                            <path
                            d="M54.6955 17.9602L50.3942 16.8078C49.8001 16.6486 49.1896 17.0009 49.0304 17.5949C48.8712 18.1889 49.2239 18.7991 49.818 18.9582L54.1197 20.1106C54.7173 20.2711 55.3248 19.9132 55.4831 19.3235C55.6422 18.7295 55.2896 18.1189 54.6955 17.9602Z"
                            fill="#1A4137" />
                            <path
                            d="M43.8853 2.38395L42.7316 6.68574C42.5724 7.27978 42.9247 7.88991 43.5187 8.04951C44.1123 8.20824 44.7229 7.85686 44.8825 7.26239L46.0358 2.9606C46.1949 2.36656 45.8427 1.75599 45.2487 1.59683C44.655 1.43767 44.0445 1.78991 43.8853 2.38395Z"
                            fill="#1A4137" />
                        </g>
                        <defs>
                            <clipPath id="clip0_56_5664">
                            <rect width="57" height="57" fill="white" />
                            </clipPath>
                        </defs>
                        </svg>