<svg width="52" height="52" viewBox="0 0 52 52" fill="none" xmlns="http://www.w3.org/2000/svg">
                        <g clip-path="url(#clip0_56_5674)">
                            <path
                            d="M49.6145 35.7991V5.44771C50.8 5.20752 51.6953 4.15746 51.6953 2.90205C51.6953 1.46981 50.5302 0.304688 49.098 0.304688H2.90195C1.46981 0.304688 0.304688 1.46991 0.304688 2.90205C0.304688 4.15746 1.19996 5.20742 2.3855 5.44761V35.799C1.19996 36.0392 0.304688 37.0892 0.304688 38.3446C0.304688 39.7769 1.46981 40.942 2.90195 40.942H20.3894L14.8846 50.4765C14.7395 50.7278 14.7395 51.0376 14.8846 51.289C15.0297 51.5403 15.298 51.6952 15.5882 51.6952H18.9214C19.2117 51.6952 19.4799 51.5403 19.625 51.289L25.5989 40.942H26.8288L32.8027 51.289C32.9478 51.5403 33.216 51.6952 33.5063 51.6952H36.8395C37.1297 51.6952 37.398 51.5403 37.5431 51.289C37.6882 51.0376 37.6882 50.7278 37.5431 50.4765L32.0383 40.942H49.0979C50.5301 40.942 51.6952 39.7768 51.6952 38.3446C51.6952 37.0893 50.7999 36.0393 49.6144 35.7991H49.6145ZM47.9895 5.49941V35.7473H4.0105V5.49941H47.9895ZM1.92969 2.90205C1.92969 2.3659 2.3658 1.92969 2.90195 1.92969H49.098C49.6341 1.92969 50.0703 2.3659 50.0703 2.90205C50.0703 3.4382 49.6341 3.87441 49.098 3.87441H2.90195C2.3658 3.87441 1.92969 3.4382 1.92969 2.90205ZM18.4524 50.0702H16.9956L22.2657 40.942H23.7226L18.4524 50.0702ZM35.4322 50.0702H33.9754L28.7051 40.942H30.1619L35.4321 50.0702H35.4322ZM49.098 39.317H2.90195C2.3658 39.317 1.92969 38.8808 1.92969 38.3446C1.92969 37.8085 2.3658 37.3723 2.90195 37.3723H49.098C49.6341 37.3723 50.0703 37.8085 50.0703 38.3446C50.0703 38.8808 49.6341 39.317 49.098 39.317ZM7.42341 25.1889H28.6746C28.978 25.1889 29.2561 25.0199 29.3958 24.7507C29.5355 24.4814 29.5137 24.1567 29.339 23.9087L24.4717 16.996C23.9258 16.2207 23.1029 15.7937 22.1547 15.7937C21.2066 15.7937 20.3836 16.2208 19.8378 16.996L19.1758 17.9361L18.2822 16.6669C18.2822 16.6669 18.2821 16.6668 18.282 16.6667L17.479 15.5263C16.9115 14.7202 16.056 14.2762 15.0703 14.2762C14.8132 14.2762 14.5654 14.3071 14.3288 14.366V13.1147C14.5133 13.0961 14.7294 13.1541 15.0894 13.2605C15.4861 13.3777 15.9778 13.5232 16.5752 13.5232C16.8978 13.5232 17.2514 13.4807 17.6372 13.3686C18.0459 13.2497 18.2937 12.8356 18.2051 12.4192C18.071 11.7895 18.1039 11.5794 18.1539 11.2616C18.1914 11.0225 18.2381 10.725 18.2224 10.2756C18.2138 10.0251 18.0899 9.79266 17.8869 9.6456C17.6839 9.49864 17.4245 9.45364 17.1837 9.52352C16.5409 9.71039 16.0818 9.5746 15.5502 9.41759C15.1287 9.29297 14.6434 9.15007 14.1051 9.21782C13.957 9.06202 13.7484 8.96432 13.5164 8.96432C13.0677 8.96432 12.7039 9.32811 12.7039 9.77682V10.3029C12.7039 10.3029 12.7039 10.3034 12.7039 10.3037V12.5882C12.7039 12.5882 12.7039 12.5887 12.7039 12.5889V15.4693C12.6899 15.4883 12.6753 15.5066 12.6616 15.5261L6.75949 23.9086C6.5848 24.1567 6.56287 24.4813 6.70262 24.7506C6.84237 25.0198 7.12045 25.1888 7.42381 25.1888L7.42341 25.1889ZM15.0892 10.976C15.4724 11.0892 15.9445 11.2288 16.5148 11.2381C16.4915 11.4208 16.4764 11.6287 16.4916 11.897C16.1664 11.8843 15.8714 11.7971 15.5499 11.702C15.2032 11.5996 14.8136 11.4843 14.3865 11.4843C14.3673 11.4843 14.3479 11.4845 14.3286 11.485V10.8294C14.5129 10.8109 14.7294 10.8694 15.0892 10.9758V10.976ZM13.9898 16.4617C14.2518 16.0897 14.6151 15.9011 15.07 15.9011C15.5249 15.9011 15.8883 16.0897 16.1502 16.4617L16.9532 17.6022C16.9532 17.6022 16.9532 17.6023 16.9533 17.6024L17.6354 18.5711L18.5113 19.8152C18.5113 19.8152 18.5113 19.8153 18.5114 19.8154L19.6066 21.3709C19.7649 21.5956 20.0162 21.7157 20.2717 21.7157C20.4334 21.7157 20.5966 21.6676 20.7388 21.5675C21.1057 21.3092 21.1937 20.8023 20.9354 20.4355L20.1693 19.3475L21.1663 17.9315C21.4059 17.5911 21.7383 17.4187 22.1545 17.4187C22.5707 17.4187 22.9033 17.5912 23.1428 17.9315L27.1087 23.5639H8.9892L13.9898 16.4617ZM43.6655 24.8712V25.8715C43.6655 26.3202 43.3017 26.684 42.853 26.684C42.4043 26.684 42.0405 26.3202 42.0405 25.8715V24.8712C42.0405 24.4225 42.4043 24.0587 42.853 24.0587C43.3017 24.0587 43.6655 24.4225 43.6655 24.8712ZM43.6655 22.5854C43.6655 23.0341 43.3017 23.3979 42.853 23.3979C42.4043 23.3979 42.0405 23.0341 42.0405 22.5854V21.503C42.0405 21.0543 42.4043 20.6905 42.853 20.6905C43.3017 20.6905 43.6655 21.0543 43.6655 21.503V22.5854ZM43.6655 19.2172C43.6655 19.6659 43.3017 20.0297 42.853 20.0297C42.4043 20.0297 42.0405 19.6659 42.0405 19.2172V18.3662C42.0405 17.9175 42.4043 17.5537 42.853 17.5537C43.3017 17.5537 43.6655 17.9175 43.6655 18.3662V19.2172ZM42.853 14.6174C43.3017 14.6174 43.6655 14.9812 43.6655 15.4299V16.0803C43.6655 16.529 43.3017 16.8928 42.853 16.8928C42.4043 16.8928 42.0405 16.529 42.0405 16.0803V15.4299C42.0405 14.9812 42.4043 14.6174 42.853 14.6174ZM40.7351 12.0612C40.9577 11.6716 41.4541 11.5363 41.8436 11.7589C42.2387 11.9847 42.584 12.2794 42.8698 12.6347C43.1512 12.9843 43.0958 13.4958 42.7461 13.7771C42.596 13.8978 42.4161 13.9565 42.2373 13.9565C41.9997 13.9565 41.7643 13.8528 41.6038 13.6534C41.4457 13.457 41.2552 13.2942 41.0372 13.1697C40.6476 12.9471 40.5124 12.4508 40.735 12.0612H40.7351ZM37.1249 12.0982C37.1249 11.6495 37.4886 11.2857 37.9374 11.2857H39.0124C39.4611 11.2857 39.8249 11.6495 39.8249 12.0982C39.8249 12.5469 39.4611 12.9107 39.0124 12.9107H37.9374C37.4886 12.9107 37.1249 12.5469 37.1249 12.0982ZM42.853 32.1061C44.2514 32.1061 45.3891 30.9683 45.3891 29.5699C45.3891 28.1715 44.2514 27.0337 42.853 27.0337C41.4546 27.0337 40.3168 28.1714 40.3168 29.5699C40.3168 30.9684 41.4545 32.1061 42.853 32.1061ZM42.853 28.6587C43.3554 28.6587 43.7641 29.0674 43.7641 29.5699C43.7641 30.0725 43.3554 30.4811 42.853 30.4811C42.3505 30.4811 41.9418 30.0724 41.9418 29.5699C41.9418 29.0675 42.3504 28.6587 42.853 28.6587ZM24.9244 13.8096L25.4928 13.2411L24.9244 12.6727C24.6071 12.3554 24.6071 11.841 24.9244 11.5237C25.2416 11.2064 25.756 11.2064 26.0733 11.5237L26.6418 12.0921L27.2102 11.5237C27.5275 11.2064 28.0419 11.2064 28.3592 11.5237C28.6765 11.841 28.6765 12.3554 28.3592 12.6727L27.7907 13.2411L28.3592 13.8096C28.6765 14.1268 28.6765 14.6413 28.3592 14.9585C28.2006 15.1172 27.9927 15.1965 27.7847 15.1965C27.5767 15.1965 27.3688 15.1172 27.2101 14.9585L26.6417 14.3901L26.0732 14.9585C25.7559 15.2758 25.2415 15.2758 24.9242 14.9585C24.607 14.6413 24.6071 14.1268 24.9244 13.8096ZM6.84887 29.2426C6.53159 28.9253 6.53159 28.4109 6.84887 28.0936C7.16615 27.7763 7.68056 27.7763 7.99784 28.0936L8.56629 28.6621L9.13473 28.0936C9.45202 27.7763 9.96643 27.7763 10.2837 28.0936C10.601 28.4109 10.601 28.9253 10.2837 29.2426L9.71527 29.811L10.2837 30.3795C10.601 30.6968 10.601 31.2112 10.2837 31.5285C10.1251 31.6871 9.91717 31.7664 9.70917 31.7664C9.50117 31.7664 9.29327 31.6871 9.13463 31.5285L8.56619 30.96L7.99774 31.5285C7.68046 31.8457 7.16605 31.8457 6.84877 31.5285C6.53148 31.2112 6.53148 30.6968 6.84877 30.3795L7.41721 29.811L6.84887 29.2426ZM32.9313 25.8714V24.8711C32.9313 24.4224 33.2951 24.0586 33.7438 24.0586C34.1925 24.0586 34.5563 24.4224 34.5563 24.8711V25.8714C34.5563 26.3201 34.1925 26.6839 33.7438 26.6839C33.2951 26.6839 32.9313 26.3201 32.9313 25.8714ZM32.9313 22.5854V21.503C32.9313 21.0543 33.2951 20.6905 33.7438 20.6905C34.1925 20.6905 34.5563 21.0543 34.5563 21.503V22.5854C34.5563 23.0341 34.1925 23.3979 33.7438 23.3979C33.2951 23.3979 32.9313 23.0341 32.9313 22.5854ZM32.9313 19.2172V18.3662C32.9313 17.9175 33.2951 17.5537 33.7438 17.5537C34.1925 17.5537 34.5563 17.9175 34.5563 18.3662V19.2172C34.5563 19.6659 34.1925 20.0297 33.7438 20.0297C33.2951 20.0297 32.9313 19.6659 32.9313 19.2172ZM32.9313 16.0803V15.4299C32.9313 14.9812 33.2951 14.6174 33.7438 14.6174C34.1925 14.6174 34.5563 14.9812 34.5563 15.4299V16.0803C34.5563 16.529 34.1925 16.8928 33.7438 16.8928C33.2951 16.8928 32.9313 16.529 32.9313 16.0803ZM33.7269 12.6348C34.0126 12.2795 34.3579 11.9849 34.7531 11.7589C35.1426 11.5363 35.6389 11.6716 35.8617 12.0611C36.0844 12.4506 35.9492 12.947 35.5596 13.1697C35.3416 13.2943 35.151 13.457 34.9931 13.6533C34.8325 13.8528 34.5971 13.9565 34.3595 13.9565C34.1808 13.9565 34.0009 13.8978 33.8508 13.7771C33.5011 13.4957 33.4456 12.9844 33.727 12.6347L33.7269 12.6348ZM21.4032 29.2586C21.4032 29.7073 21.0394 30.0711 20.5907 30.0711H17.109L18.152 30.6733C18.5405 30.8977 18.6737 31.3946 18.4493 31.7832C18.2988 32.0438 18.0257 32.1895 17.7449 32.1895C17.6071 32.1895 17.4673 32.1544 17.3394 32.0806L13.6704 29.9623C13.419 29.8171 13.2642 29.5489 13.2642 29.2586C13.2642 28.9684 13.419 28.7002 13.6704 28.555L17.3394 26.4367C17.7279 26.2125 18.2249 26.3455 18.4492 26.7341C18.6736 27.1227 18.5404 27.6196 18.1519 27.844L17.1089 28.4461H20.5906C21.0393 28.4461 21.4032 28.8099 21.4032 29.2586ZM24.7714 29.2586C24.7714 29.7073 24.4076 30.0711 23.9589 30.0711H22.8765C22.4278 30.0711 22.064 29.7073 22.064 29.2586C22.064 28.8099 22.4278 28.4461 22.8765 28.4461H23.9589C24.4076 28.4461 24.7714 28.8099 24.7714 29.2586ZM27.9082 29.2586C27.9082 29.7073 27.5444 30.0711 27.0957 30.0711H26.2448C25.7961 30.0711 25.4323 29.7073 25.4323 29.2586C25.4323 28.8099 25.7961 28.4461 26.2448 28.4461H27.0957C27.5444 28.4461 27.9082 28.8099 27.9082 29.2586ZM29.3815 28.4461H30.0318C30.4805 28.4461 30.8443 28.8099 30.8443 29.2586C30.8443 29.7073 30.4805 30.0711 30.0318 30.0711H29.3815C28.9328 30.0711 28.569 29.7073 28.569 29.2586C28.569 28.8099 28.9328 28.4461 29.3815 28.4461ZM31.6847 29.1519C31.4033 28.8023 31.4587 28.2908 31.8084 28.0095C32.0048 27.8515 32.1675 27.6609 32.2921 27.443C32.5148 27.0534 33.0112 26.9181 33.4008 27.1409C33.7904 27.3636 33.9256 27.8599 33.7029 28.2495C33.4771 28.6445 33.1824 28.9898 32.8271 29.2757C32.677 29.3965 32.4971 29.4552 32.3183 29.4552C32.0807 29.4552 31.8453 29.3515 31.6848 29.152L31.6847 29.1519Z"
                            fill="#1A4137" />
                        </g>
                        </svg>