<svg width="63" height="63" viewBox="0 0 63 63" fill="none" xmlns="http://www.w3.org/2000/svg">
                        <path
                            d="M17.1049 21.6031C19.5101 21.5402 21.7957 20.5406 23.4747 18.8172C25.1537 17.0937 26.0933 14.7828 26.0933 12.3767C26.0933 9.97067 25.1537 7.65973 23.4747 5.93631C21.7957 4.21289 19.5101 3.21325 17.1049 3.15039C14.6599 3.18297 12.3242 4.16828 10.5946 5.89669C8.86504 7.62509 7.87814 9.96016 7.84389 12.4051C7.85722 14.8513 8.83921 17.1927 10.5749 18.9166C12.3106 20.6405 14.6586 21.6064 17.1049 21.6031ZM36.4018 39.6022C36.146 39.5147 35.8671 39.5238 35.6175 39.6276C35.368 39.7313 35.1649 39.9227 35.0465 40.1657C34.9281 40.4087 34.9025 40.6865 34.9746 40.9471C35.0467 41.2076 35.2114 41.4328 35.4379 41.5803C43.4767 45.4989 52.2274 37.2712 48.6679 28.9174C46.0345 23.0017 39.3439 21.5212 34.0708 24.8035C33.9467 24.8796 33.8388 24.9794 33.7533 25.0972C33.6678 25.215 33.6063 25.3485 33.5723 25.4901C33.5384 25.6317 33.5327 25.7785 33.5555 25.9223C33.5784 26.0661 33.6293 26.204 33.7054 26.3281C33.7815 26.4522 33.8813 26.5601 33.9991 26.6456C34.1169 26.7311 34.2505 26.7926 34.392 26.8265C34.5336 26.8605 34.6805 26.8662 34.8242 26.8433C34.968 26.8205 35.1059 26.7696 35.23 26.6935C39.3439 24.1735 44.554 25.213 46.6141 29.7742C49.3105 36.2695 42.5569 42.5695 36.3829 39.6148L36.4018 39.6022ZM58.7227 36.1309L55.6357 33.8818C55.5727 33.8125 55.4404 33.7495 55.4404 33.6235C55.4751 32.9582 55.4751 32.2916 55.4404 31.6264C55.4355 31.4863 55.4826 31.3494 55.5727 31.2421L58.5904 28.93C59.0708 28.5662 59.4189 28.0552 59.5816 27.4751C59.7442 26.8949 59.7125 26.2774 59.4913 25.717L58.4014 23.2726C58.1416 22.7412 57.725 22.3023 57.208 22.015C56.6909 21.7277 56.0982 21.6059 55.5097 21.6661L51.8431 22.2961C51.5218 22.3591 51.4525 22.2331 51.3895 22.1638C50.9422 21.7165 50.4886 21.2692 50.0413 20.9038C49.9226 20.7843 49.853 20.6247 49.846 20.4565L50.3626 16.6765C50.4322 16.0783 50.2985 15.474 49.9832 14.961C49.6678 14.4479 49.189 14.0558 48.6238 13.8478L46.3117 12.9469C45.7514 12.6892 45.1196 12.6318 44.5221 12.7843C43.9246 12.9368 43.3976 13.29 43.0294 13.7848L40.8433 16.8655C40.7803 16.9978 40.711 17.0608 40.3897 17.0608H38.4619C38.4326 17.0742 38.4009 17.0817 38.3687 17.0826C38.3365 17.0835 38.3044 17.0779 38.2744 17.0662C38.2444 17.0544 38.2171 17.0367 38.1941 17.0141C38.1711 16.9915 38.1529 16.9646 38.1406 16.9348L35.8222 13.8604C35.4569 13.3822 34.9422 13.04 34.36 12.8882C33.7777 12.7364 33.1615 12.7836 32.6092 13.0225L30.2404 14.0809C29.669 14.3007 29.1934 14.7149 28.8973 15.2507C28.6011 15.7865 28.5034 16.4096 28.6213 17.0104L29.2513 20.74C29.2718 20.8833 29.3211 21.021 29.3962 21.1447C29.4714 21.2685 29.5709 21.3757 29.6886 21.4599C29.8064 21.5441 29.94 21.6035 30.0814 21.6346C30.2228 21.6658 30.3691 21.6679 30.5113 21.6409C30.7932 21.5842 31.0431 21.4226 31.2104 21.1887C31.3776 20.9547 31.4498 20.666 31.4122 20.3809L30.7822 16.6009C30.7192 16.4056 30.8452 16.2103 31.1035 16.1473L33.4471 15.1204C33.5446 15.0774 33.6533 15.0665 33.7574 15.0891C33.8615 15.1117 33.9558 15.1668 34.0267 15.2464L36.3388 18.2704C36.5786 18.6363 36.917 18.9269 37.315 19.1087C37.713 19.2904 38.1543 19.3558 38.5879 19.2973H40.3897C40.8264 19.316 41.261 19.2263 41.6545 19.0361C42.0481 18.8459 42.3884 18.5612 42.6451 18.2074L44.8312 15.1204C44.8958 15.0322 44.9903 14.9707 45.0971 14.9475C45.2039 14.9243 45.3155 14.941 45.4108 14.9944L47.8804 15.9457C47.9434 16.0087 48.2017 16.0717 48.1324 16.393L47.6221 20.1226C47.5772 20.5706 47.6337 21.0229 47.7875 21.4461C47.9412 21.8692 48.1883 22.2523 48.5104 22.567C48.9392 22.8824 49.3284 23.2483 49.6696 23.6569C49.9787 24.0085 50.3722 24.2757 50.8131 24.4333C51.2539 24.5909 51.7276 24.6337 52.1896 24.5578L55.7869 23.9278C55.9095 23.9295 56.0301 23.9593 56.1393 24.015C56.2486 24.0707 56.3435 24.1508 56.4169 24.2491L57.3808 26.5612C57.4396 26.6642 57.4586 26.7852 57.4342 26.9013C57.4098 27.0174 57.3438 27.1205 57.2485 27.1912L54.2245 29.4403C53.8725 29.7094 53.5939 30.0629 53.4145 30.4681C53.235 30.8733 53.1604 31.3171 53.1976 31.7587C53.2291 32.3357 53.2291 32.9141 53.1976 33.4912C53.1912 33.9257 53.2871 34.3557 53.4775 34.7464C53.6679 35.1371 53.9476 35.4776 54.2938 35.7403L57.4438 37.9957C57.5698 38.0587 57.6328 38.2477 57.5698 38.506L56.5366 40.9504C56.5366 41.0134 56.4736 41.2087 56.083 41.2087L52.3534 40.692C51.8993 40.6538 51.4424 40.7208 51.0184 40.888C50.5945 41.0552 50.2148 41.318 49.909 41.656C49.5947 42.067 49.2283 42.4355 48.8191 42.7521C48.4883 43.0747 48.2395 43.4718 48.0938 43.9103C47.948 44.3487 47.9094 44.8157 47.9812 45.2721L48.5608 48.8694C48.5826 48.9882 48.5699 49.1107 48.5241 49.2223C48.4783 49.334 48.4014 49.4302 48.3025 49.4994L45.9904 50.4633C45.8878 50.5214 45.7676 50.5407 45.652 50.5176C45.5363 50.4944 45.4328 50.4305 45.3604 50.3373L43.0924 47.3763C42.8097 47.0035 42.4374 46.7082 42.0101 46.5177C41.5828 46.3271 41.1143 46.2476 40.648 46.2864C40.1144 46.3495 39.5751 46.3495 39.0415 46.2864C38.6004 46.2809 38.1647 46.3838 37.7725 46.5859C37.3804 46.788 37.0439 47.0832 36.7924 47.4456L34.474 50.5263C34.4217 50.6109 34.3387 50.672 34.2424 50.6967C34.146 50.7213 34.0439 50.7077 33.9574 50.6586L31.6453 49.7703C31.5407 49.7268 31.4498 49.6558 31.3822 49.5648C31.3145 49.4739 31.2727 49.3665 31.261 49.2537L31.7713 45.4737C31.8024 45.1803 31.7198 44.886 31.5405 44.6516C31.3612 44.4172 31.0988 44.2605 30.8074 44.2137C30.5187 44.2057 30.236 44.297 30.0067 44.4725C29.7773 44.648 29.6152 44.8969 29.5474 45.1776L28.9804 48.9891C28.9495 49.5805 29.0993 50.1672 29.4099 50.6714C29.7205 51.1755 30.1771 51.5732 30.7192 51.8115L33.1636 52.7817C33.4701 52.9049 33.7972 52.9691 34.1275 52.9707C34.5569 52.9605 34.978 52.8505 35.3574 52.6493C35.7369 52.448 36.0642 52.1612 36.3136 51.8115L38.5627 48.7938C38.695 48.5985 38.821 48.5355 38.8903 48.5355C39.5524 48.5986 40.219 48.5986 40.8811 48.5355C40.9551 48.5401 41.0274 48.5597 41.0935 48.5933C41.1596 48.6269 41.2181 48.6737 41.2654 48.7308L43.546 51.6603C43.9253 52.1394 44.4474 52.485 45.0365 52.647C45.6257 52.809 46.2511 52.779 46.822 52.5612L49.2034 51.5343C49.7526 51.2775 50.205 50.8513 50.4941 50.3183C50.7833 49.7854 50.894 49.1738 50.8099 48.5733L50.1799 44.8437C50.1799 44.5917 50.2429 44.5224 50.3122 44.4594C50.7644 44.0412 51.1855 43.5906 51.5722 43.1112C51.6933 42.995 51.8519 42.9258 52.0195 42.916L55.7995 43.4325C56.3988 43.5103 57.0067 43.3801 57.5215 43.0636C58.0363 42.7471 58.427 42.2636 58.6282 41.6938L59.5921 39.3817C59.8454 38.8159 59.894 38.1796 59.7296 37.582C59.5653 36.9843 59.1982 36.4624 58.6912 36.1057L58.7227 36.1309ZM31.0657 39.3439L31.0027 31.4374C31.0027 26.6116 26.8825 20.3116 21.5527 22.567C18.6942 23.6572 15.5345 23.6572 12.676 22.567C7.39659 20.2486 3.15039 26.6116 3.15039 31.4374V39.3439C3.15039 40.6921 3.85599 42.4939 7.01229 43.5207L9.38739 44.2956V55.9947C9.3856 56.5074 9.4864 57.0153 9.68388 57.4884C9.88136 57.9616 10.1715 58.3904 10.5373 58.7497C10.903 59.109 11.337 59.3915 11.8135 59.5805C12.2901 59.7695 12.7997 59.8613 13.3123 59.8503H20.9038C21.4129 59.8606 21.9189 59.7679 22.3914 59.5778C22.8638 59.3877 23.2929 59.1041 23.653 58.744C24.0131 58.3839 24.2968 57.9547 24.4869 57.4823C24.677 57.0099 24.7697 56.5039 24.7594 55.9947V44.4216L27.2038 43.5207C28.237 43.1365 31.0657 42.1096 31.0657 39.3439ZM28.8166 39.3439C28.8166 40.5031 27.3361 41.0764 26.4352 41.3977L24.7594 42.0276V32.08C24.7646 31.7828 24.6536 31.4954 24.45 31.2789C24.2465 31.0623 23.9664 30.9339 23.6695 30.9208C23.5173 30.9208 23.3665 30.9507 23.2259 31.009C23.0853 31.0673 22.9575 31.1526 22.8498 31.2603C22.7422 31.3679 22.6568 31.4957 22.5985 31.6364C22.5403 31.777 22.5103 31.9277 22.5103 32.08V56.0199C22.5128 56.2316 22.473 56.4416 22.3932 56.6377C22.3133 56.8338 22.1951 57.0119 22.0454 57.1615C21.8957 57.3112 21.7176 57.4295 21.5216 57.5093C21.3255 57.5891 21.1155 57.629 20.9038 57.6264H13.3438C13.1276 57.6349 12.9119 57.5996 12.7096 57.5227C12.5074 57.4458 12.3228 57.3288 12.1669 57.1788C12.011 57.0287 11.887 56.8488 11.8023 56.6496C11.7177 56.4505 11.6741 56.2363 11.6743 56.0199V32.08C11.6779 31.7822 11.5654 31.4948 11.3609 31.2784C11.1563 31.0621 10.8756 30.9338 10.5781 30.9208C10.4259 30.9208 10.2751 30.9507 10.1345 31.009C9.99385 31.0673 9.86606 31.1526 9.75841 31.2603C9.65077 31.3679 9.56539 31.4957 9.50713 31.6364C9.44888 31.777 9.41889 31.9277 9.41889 32.08V41.9142L7.74939 41.3977C5.39949 40.6291 5.39949 39.6904 5.39949 39.3439V31.4374C5.39949 28.5457 8.03919 22.9513 11.7688 24.6208C15.1788 25.9693 18.9743 25.9693 22.3843 24.6208C26.1643 23.0143 28.7473 28.4008 28.7473 31.4374L28.8166 39.3439ZM17.1049 5.39949C18.9545 5.39949 20.7284 6.13426 22.0363 7.44215C23.3442 8.75005 24.079 10.5239 24.079 12.3736C24.079 14.2232 23.3442 15.9971 22.0363 17.305C20.7284 18.6129 18.9545 19.3477 17.1049 19.3477C15.4081 19.347 13.7705 18.7239 12.5026 17.5964C11.2346 16.4689 10.4243 14.9154 10.2253 13.2304C11.8573 13.6248 13.5662 13.5637 15.1659 13.0538C16.7656 12.5439 18.1946 11.6048 19.2973 10.3387C19.4395 10.1137 19.4969 9.84544 19.4595 9.58194C19.422 9.31844 19.2921 9.07684 19.0929 8.90035C18.8937 8.72386 18.6382 8.62398 18.3721 8.61856C18.106 8.61314 17.8466 8.70255 17.6404 8.87078C16.7456 9.88299 15.5779 10.6157 14.2773 10.9811C12.9766 11.3465 11.5982 11.329 10.3072 10.9309C10.6435 9.37387 11.4999 7.97775 12.7354 6.97237C13.971 5.96698 15.512 5.41225 17.1049 5.39949Z"
                            fill="#1A4137" />
                        </svg>